# xmcd CD database file
#
# Track frame offsets:
#	150
#	12012
#	26243
#	39909
#	58974
#	74419
#	86079
#	99456
#	112433
#	133145
#	144798
#	157214
#	172862
#	185807
#	199686
#	212409
#	224679
#	237565
#	252437
#	267659
#	282956
#	296551
#	311046
#	326189
#
# Disc length: 4539 seconds
#
# Revision: 0
# Processed by: cddbd v1.5.1PL2 Copyright (c) Steve Scherf et al.
# Submitted via: CDex 1.70beta2
#
DISCID=8811b918
DTITLE=Various Artist - The Sweetest Black Man in Town
DYEAR=1900
DGENRE=Blues
TTITLE0=Blood Hound Blues - Victoria Spivey
TTITLE1=12th Street Rag - Louis Armstrong
TTITLE2=He's The Sweetest Black Man In Town - Ann Cook
TTITLE3=Easy Rider Blues - Albert Ammons
TTITLE4=Am I Blue - Ethel Waters
TTITLE5=Charleston Hound - New Orleans Willie Jackson
TTITLE6=Why Don't You Do Right? - Lil Green
TTITLE7=Handful of Keys - Handful of Keys
TTITLE8=I Hate A Man Like You - Lizzie Miles
TTITLE9=The Fat Feet Floogie - Slim and Slam
TTITLE10=Pussy Cat Pussy Cat - Hannah May
TTITLE11=Sunny Side Of The Street - Art Tatum
TTITLE12=Come On And Get It Honey - Nellie Lutcher
TTITLE13=The Old Art Is A Moverin' - Sidney Bechet
TTITLE14=Jack I'm Mellow - Trixie Smith
TTITLE15=Trouble In Mind - Richard M Jones
TTITLE16=New Orleans Blues - Blue Lu Barker
TTITLE17=Wild Man Blues - Louis Armstrong and His Hot Sevens
TTITLE18=Empty Bed Blues Part 2 - Bessie Smith
TTITLE19=The Jitterbug Waltz - Fats Waller
TTITLE20=God Bless This Child - Billie Holiday
TTITLE21=I Found A New Baby - Eddie Condon
TTITLE22=Anybody Here Wants To Try My Cabbage  - Maggie Jones
TTITLE23=Hot Town - Fess Williams and His Royal Flush
EXTD=
EXTT0=
EXTT1=
EXTT2=
EXTT3=
EXTT4=
EXTT5=
EXTT6=
EXTT7=
EXTT8=
EXTT9=
EXTT10=
EXTT11=
EXTT12=
EXTT13=
EXTT14=
EXTT15=
EXTT16=
EXTT17=
EXTT18=
EXTT19=
EXTT20=
EXTT21=
EXTT22=
EXTT23=
PLAYORDER=
